<svg xmlns="http://www.w3.org/2000/svg" xml:space="preserve" width="2048" height="2048" style="shape-rendering:geometricPrecision;text-rendering:geometricPrecision;image-rendering:optimizeQuality;fill-rule:evenodd;clip-rule:evenodd"><defs><style>.fil1{fill:#fff;fill-rule:nonzero}</style></defs><g id="Layer_x0020_1"><rect width="2048" height="2048" rx="256.001" ry="256.001" style="fill:#ec407a"/><path class="fil1" d="M1024 576.319c123.619 0 235.539 50.11 316.555 131.126 81.015 81.015 131.126 192.936 131.126 316.555s-50.11 235.539-131.126 316.555c-81.015 81.015-192.936 131.126-316.555 131.126s-235.539-50.11-316.555-131.126C626.43 1259.54 576.319 1147.619 576.319 1024s50.11-235.539 131.126-316.555C788.46 626.43 900.381 576.319 1024 576.319zM991.999 288c0-17.673 14.328-32 32-32 17.674 0 32.002 14.327 32.002 32v205.764c0 17.673-14.328 32-32.001 32s-32.001-14.327-32.001-32V288zM991.999 1554.24c0-17.673 14.328-32 32-32 17.674 0 32.002 14.327 32.002 32v205.764c0 17.673-14.328 32-32.001 32s-32.001-14.327-32.001-32V1554.24zM288 1056c-17.673 0-32-14.328-32-32 0-17.674 14.327-32.002 32-32.002h205.762c17.673 0 32 14.328 32 32.001s-14.327 32.001-32 32.001H288zM1554.24 1056c-17.673 0-32-14.328-32-32 0-17.674 14.327-32.002 32-32.002h205.762c17.673 0 32 14.328 32 32.001s-14.327 32.001-32 32.001H1554.24zM480.946 526.197c-12.495-12.495-12.495-32.755 0-45.25 12.495-12.495 32.755-12.495 45.25 0L671.69 626.44c12.495 12.494 12.495 32.755 0 45.25-12.494 12.495-32.755 12.495-45.25 0L480.946 526.197zM1376.31 1421.56c-12.495-12.495-12.495-32.755 0-45.25 12.495-12.495 32.755-12.495 45.25 0l145.494 145.494c12.495 12.494 12.495 32.755 0 45.25-12.495 12.495-32.755 12.495-45.25 0L1376.31 1421.56zM1521.8 480.946c12.495-12.495 32.755-12.495 45.25 0 12.495 12.495 12.495 32.755 0 45.25L1421.556 671.69c-12.495 12.495-32.755 12.495-45.25 0-12.495-12.494-12.495-32.755 0-45.25L1521.8 480.946zM626.441 1376.31c12.495-12.495 32.755-12.495 45.25 0 12.495 12.495 12.495 32.755 0 45.25l-145.494 145.494c-12.494 12.495-32.755 12.495-45.25 0-12.495-12.495-12.495-32.755 0-45.25l145.494-145.494z"/></g></svg>
